<svg width="48" height="48" viewBox="0 0 48 48" fill="none" xmlns="http://www.w3.org/2000/svg">
<path d="M42.1603 17.1601V30.84C42.1603 33.08 40.9603 35.1601 39.0203 36.3001L27.1403 43.1601C25.2003 44.2801 22.8003 44.2801 20.8403 43.1601L8.96031 36.3001C7.02031 35.1801 5.82031 33.1 5.82031 30.84V17.1601C5.82031 14.9201 7.02031 12.84 8.96031 11.7L20.8403 4.84C22.7803 3.72 25.1803 3.72 27.1403 4.84L39.0203 11.7C40.9603 12.84 42.1603 14.9001 42.1603 17.1601Z" stroke="#F59E0B" stroke-width="1.5" stroke-linecap="round" stroke-linejoin="round"/>
<path d="M23.9998 21.9996C26.5735 21.9996 28.6598 19.9132 28.6598 17.3396C28.6598 14.766 26.5735 12.6797 23.9998 12.6797C21.4262 12.6797 19.3398 14.766 19.3398 17.3396C19.3398 19.9132 21.4262 21.9996 23.9998 21.9996Z" stroke="#F59E0B" stroke-width="1.5" stroke-linecap="round" stroke-linejoin="round"/>
<path d="M32 33.3197C32 29.7197 28.42 26.7998 24 26.7998C19.58 26.7998 16 29.7197 16 33.3197" stroke="#F59E0B" stroke-width="1.5" stroke-linecap="round" stroke-linejoin="round"/>
</svg>
